<svg id="Layer_1" data-name="Layer 1" xmlns="http://www.w3.org/2000/svg" width="200" height="200" viewBox="0 0 200 200"><defs><style>.cls-1{fill:#c00020;}.cls-2{fill:none;}</style></defs><title>university-of-groningen-logo-freelogovectors.net_</title><path class="cls-1" d="M136.44,157.8h1c1.1,0,1.24.25,1.24,2.11v6.75c0,1.28-.14,1.75-1.55,1.75h-.88v1.35H144v-1.35h-.39c-1.41,0-1.55-.47-1.55-1.75v-4.54c0-2.6,1.38-4,3.4-4,1.5,0,2.44.89,2.44,2.85v5.73c0,1.28-.14,1.75-1.55,1.75H146v1.35h7.59v-1.35h-.72c-1.41,0-1.55-.47-1.55-1.75v-6.53c0-3-2.11-4.21-4.82-4.21a4.71,4.71,0,0,0-4.76,3.18h-.06V156c-1.35.17-3.82.33-5.23.33Zm-2.19,5.49v-.64c0-4.65-1.85-6.73-6.31-6.73-4.65,0-6.64,3.05-6.64,7.14s2,7.15,6.64,7.15,6-2.38,6-4.77h-2.83c0,2.08-.85,3.16-2.88,3.16-3.4,0-3.43-3.43-3.43-5.31Zm-9.41-1.61c0-2.33.69-4.24,3.08-4.24s3,2,3,4.24Zm-10.55-.94c0,2.41-.69,3.57-2.18,3.57s-2.41-1.05-2.41-3.54.83-3.33,2.38-3.33c1.33,0,2.21.78,2.21,3.3m1.17,11.35c0,1.27-.86,2.6-3.49,2.6-2.33,0-3.24-1.11-3.24-2.46s.83-2.69,3.32-2.69,3.41,1.14,3.41,2.55m4-16-4.1.36a12.38,12.38,0,0,0-3.21-.58c-3.63,0-6,2.08-6,4.76,0,2.52,1.58,3.77,3.66,4.43v.06c-1.91.16-2.72.86-2.72,1.74s.64,1.41,2.5,1.77v.06c-1.94.19-4.24,1.22-4.24,3.46s1.91,4,6.29,4c4.65,0,7.19-1.52,7.19-4.09,0-3.27-2.6-3.66-5.2-3.85-3-.22-3.55-.5-3.55-1.27s1.25-1.06,2.16-1.2l.67-.11c3.88-.63,5.09-2.71,5.09-4.92a3.61,3.61,0,0,0-1.21-2.8v-.05h2.68Zm-32.7,1.66h1c1.11,0,1.24.25,1.24,2.11v6.75c0,1.28-.13,1.75-1.55,1.75h-.88v1.35h7.75v-1.35H94c-1.41,0-1.55-.47-1.55-1.75v-4.54c0-2.6,1.39-4,3.41-4,1.49,0,2.43.89,2.43,2.85v5.73c0,1.28-.13,1.75-1.55,1.75h-.38v1.35h7.58v-1.35h-.72c-1.41,0-1.55-.47-1.55-1.75v-6.53c0-3-2.1-4.21-4.82-4.21a4.71,4.71,0,0,0-4.76,3.18h0V156c-1.36.17-3.82.33-5.24.33Zm-7.5-6.17a2,2,0,1,0,2-2.08,1.92,1.92,0,0,0-2,2.08m-1.88,6.17h1c1.11,0,1.25.25,1.25,2.11v6.75c0,1.28-.14,1.75-1.55,1.75h-.89v1.35h8.09v-1.35h-.72c-1.41,0-1.55-.47-1.55-1.75V156c-1.78.17-4.24.33-5.65.33Zm-18.61,0h1c1.11,0,1.24.25,1.24,2.11v6.75c0,1.28-.13,1.75-1.55,1.75h-.88v1.35h7.75v-1.35H66c-1.41,0-1.55-.47-1.55-1.75v-4.54c0-2.6,1.39-4,3.41-4,1.49,0,2.43.89,2.43,2.85v5.73c0,1.28-.13,1.75-1.55,1.75h-.39v1.35h7.59v-1.35H75.2c-1.41,0-1.55-.47-1.55-1.75v-6.53c0-3-2.1-4.21-4.82-4.21a4.71,4.71,0,0,0-4.76,3.18h0V156c-1.36.17-3.82.33-5.24.33Zm-15.14,5.26c0,4.1,2,7.15,6.65,7.15s6.64-3.05,6.64-7.15-2-7.14-6.64-7.14-6.65,3.05-6.65,7.14m3.54,0c0-3.76.83-5.53,3.11-5.53s3.09,1.77,3.09,5.53-.82,5.54-3.09,5.54-3.11-1.77-3.11-5.54M29.93,157.8h1.19c1.11,0,1.25.25,1.25,2.11v6.75c0,1.28-.14,1.75-1.55,1.75h-.89v1.35h8.83v-1.35H37.29c-1.41,0-1.55-.47-1.55-1.75v-4.54c0-2.32,1.28-4,2.55-4,1.08,0,1.39.78,1.41,2.16h2.66v-4a6.93,6.93,0,0,0-2.21-.33,4.72,4.72,0,0,0-4.77,3.18h-.05V156a53.27,53.27,0,0,1-5.4.33Zm-6.45,2.94c0,2.41-.69,3.57-2.19,3.57s-2.41-1.05-2.41-3.54.83-3.33,2.38-3.33c1.33,0,2.22.78,2.22,3.3m1.16,11.35c0,1.27-.86,2.6-3.49,2.6-2.32,0-3.23-1.11-3.23-2.46s.82-2.69,3.32-2.69,3.4,1.14,3.4,2.55m4-16-4.1.36a12.47,12.47,0,0,0-3.21-.58c-3.63,0-6,2.08-6,4.76,0,2.52,1.58,3.77,3.65,4.43v.06c-1.91.16-2.71.86-2.71,1.74s.64,1.41,2.49,1.77v.06c-1.94.19-4.23,1.22-4.23,3.46s1.91,4,6.28,4c4.65,0,7.2-1.52,7.2-4.09,0-3.27-2.6-3.66-5.21-3.85-3-.22-3.54-.5-3.54-1.27s1.25-1.06,2.16-1.2l.66-.11c3.88-.63,5.1-2.71,5.1-4.92A3.62,3.62,0,0,0,26,158v-.05h2.69Z"/><path class="cls-1" d="M174.68,130.28h2.43V139c0,1.27-.13,1.74-1.55,1.74h-.88v1.36h8.83v-1.36H182c-1.41,0-1.55-.47-1.55-1.74v-8.7h3.63v-1.6h-3.63v-2.74c0-1.66.67-2.47,1.8-2.47s1.38.61,1.38,2.44H186v-3.65a18,18,0,0,0-3.68-.39c-5,0-5.21,3-5.21,6.81h-2.43Zm-15,5.1c0,4.1,2,7.14,6.65,7.14s6.64-3,6.64-7.14-2-7.14-6.64-7.14-6.65,3-6.65,7.14m3.54,0c0-3.77.83-5.54,3.11-5.54s3.09,1.77,3.09,5.54-.82,5.54-3.09,5.54-3.11-1.78-3.11-5.54m-17.11,6.37-1.32,3.38c-.36,1-.72,1.54-1.78,1.54h-1.24V148h7.42v-1.36h-.92c-1.08,0-1.38-.24-1.38-.83a4.58,4.58,0,0,1,.44-1.46l5.43-13c.39-.91.64-1.36,1.22-1.36h.61v-1.35h-5.87V130h1.16c.47,0,.66.09.66.48a2.77,2.77,0,0,1-.3,1l-2.52,6.45-2.27-6.14a3.6,3.6,0,0,1-.36-1.25c0-.38.28-.5.75-.5h1v-1.35H140V130h.41c.67,0,1,.42,1.55,1.75Zm-18.54-11.47H130v7.95c0,3.43,1.55,4.35,4.35,4.35s4.23-1.33,4.23-4.3v-.6h-2.32v1.41c0,1.19-.45,1.71-1.44,1.71s-1.44-.52-1.44-1.71v-8.81h4.43v-1.6H133.4v-3.91H131c-.22,2.8-.83,3.6-3.4,3.91Zm-7.34-6.34a2,2,0,1,0,2-2.07,1.92,1.92,0,0,0-2,2.07m-1.88,6.18h1c1.11,0,1.25.25,1.25,2.1V139c0,1.27-.14,1.74-1.55,1.74h-.89v1.36h8.09v-1.36h-.72c-1.42,0-1.56-.47-1.56-1.74V128.35c-1.77.16-4.23.33-5.64.33ZM105.1,141.64a15.06,15.06,0,0,0,5.1.88c2.9,0,6-1.24,6-4.48,0-2.11-1.05-2.91-3.43-3.69l-2.28-.74c-1.27-.42-2-1.17-2-2.22s.81-1.63,2.08-1.63c2,0,2.52.88,2.52,3h2.32V129a13.48,13.48,0,0,0-4.76-.74c-3.27,0-5.54,1.52-5.54,4,0,2.16,1.55,3.32,4.77,4.29,2.54.77,2.93,1.38,2.93,2.41,0,1.27-1.16,2-2.93,2s-2.44-1.28-2.44-3.24H105.1ZM90.73,130.12h1.19c1.11,0,1.25.25,1.25,2.1V139c0,1.27-.14,1.74-1.55,1.74h-.89v1.36h8.83v-1.36H98.1c-1.42,0-1.55-.47-1.55-1.74v-4.54c0-2.33,1.27-4.05,2.54-4.05,1.08,0,1.39.78,1.41,2.16h2.66v-4a6.93,6.93,0,0,0-2.21-.33,4.7,4.7,0,0,0-4.76,3.18h-.06v-3.07c-1.36.16-3.82.33-5.4.33Zm-2,5.48V135c0-4.65-1.86-6.72-6.31-6.72-4.65,0-6.65,3-6.65,7.14s2,7.14,6.65,7.14,6-2.38,6-4.76H85.61c0,2.08-.86,3.16-2.88,3.16-3.41,0-3.43-3.44-3.43-5.32ZM79.3,134c0-2.32.69-4.23,3.07-4.23s3,2,3,4.23Zm-10.25-4h1.16c.64,0,.81.17.81.36a2,2,0,0,1-.14.7L68,139.31h-.06l-2.65-7.81a3.06,3.06,0,0,1-.25-1c0-.3.27-.5,1.1-.5h.92v-1.35H60.14V130h.33c.61,0,.77.17,1.13,1.08l4.3,11.13h3.26L73.45,131c.28-.72.53-.95,1.11-.95h.36v-1.35H69.05Zm-15.39-6.09a2,2,0,1,0,2-2.07,1.92,1.92,0,0,0-2,2.07m-1.89,6.18h1c1.1,0,1.24.25,1.24,2.1V139c0,1.27-.14,1.74-1.55,1.74h-.88v1.36h8.08v-1.36H59c-1.41,0-1.55-.47-1.55-1.74V128.35c-1.77.16-4.24.33-5.65.33Zm-18.6,0h1c1.11,0,1.25.25,1.25,2.1V139c0,1.27-.14,1.74-1.55,1.74H33v1.36h7.75v-1.36h-.38c-1.41,0-1.55-.47-1.55-1.74v-4.54c0-2.61,1.38-4.05,3.4-4.05,1.5,0,2.44.89,2.44,2.86V139c0,1.27-.14,1.74-1.55,1.74h-.39v1.36h7.59v-1.36h-.72c-1.42,0-1.55-.47-1.55-1.74v-6.54c0-3-2.11-4.2-4.82-4.2a4.71,4.71,0,0,0-4.76,3.18H38.4v-3.07c-1.35.16-3.82.33-5.23.33Zm-6.7,12H31.7v-1.36H31c-1.41,0-1.55-.47-1.55-1.74V128.35c-1.77.16-4.23.33-5.65.33v1.44h1c1.11,0,1.24.25,1.24,2.1V136c0,2.86-1,4.35-3.37,4.35a2.19,2.19,0,0,1-2.47-2.44v-9.57c-1.77.16-4.23.33-5.65.33v1.44h1c1.11,0,1.25.25,1.25,2.1v6.48c0,2.58,1.66,3.82,4.4,3.82s4.54-1.22,5.17-3.07h.06Z"/><polygon class="cls-1" points="132.62 47.79 83.46 108.47 79.55 108.47 128.71 47.8 132.62 47.79"/><path class="cls-1" d="M37.75,36c-.36.05-.86.2-1.16-.44s.74-1.52,1.07-1.82-.13-.81-.46-.35c-.09.12-.87,1.23-1.49,1.23-1,0-.9-1.12-.9-1.12s-1.06-.67-1.06-2.83A3.59,3.59,0,0,1,35,27.81s0-1.09.86-1.06S37.28,28,37.34,28c.43.65,1,.1.59-.36-.89-1.09-1.08-2-.1-2.41a3,3,0,0,1,2.59-1.47h.08a3.07,3.07,0,0,1,2.6,1.47c1,.46.78,1.32-.11,2.41-.38.46.17,1,.6.36,0-.08.6-1.25,1.46-1.28s.86,1.06.86,1.06a3.6,3.6,0,0,1,1.26,2.84c0,2.16-1.06,2.83-1.06,2.83s0,1.12-.9,1.12c-.61,0-1.4-1.11-1.49-1.23-.32-.46-.88,0-.45.35S44.6,35,44.33,35.54s-.8.49-1.16.44c0,0-.32.57-.82.57,2.48,1.85,6.36.8,6.88-.55a.52.52,0,0,1-.65-.56c0-.42.43-.65,1-.73a2,2,0,0,1-.16-.93A1.82,1.82,0,0,1,50.92,32c.77,0,1.35.73,1.3,1.7a2.24,2.24,0,0,1-.49,1.27c.56.19,1,.48.91.82a.75.75,0,0,1-1,.67c-.1,2,3,2.42,3.79,1.9A1.5,1.5,0,0,1,56,36.47c.25-.22,1-.69,1.11-.76s.36-.48.22-.6-.45.08-.6.24-.58.8-1.16.65-.39-1-.51-1.42c-.74-2.71-.11-4.6,2.6-5.74,0,0,1-1.09,2-.59s.34,1.91.34,1.91l.27.13c1-1.8,2.43-3.1,4.48-3.15a2,2,0,0,1,2.22,2c.13,2.62-2.55,1.64-2.34.66a1.48,1.48,0,0,0-1,.64c0-.17,0-1.72-1.37-.9a5.46,5.46,0,0,0-1.14,1.56c-.18.51.08.6-.19,1.1s-.51.48-.64.76.06.82-.12,1.16-.5.46-.69.85-2.1,5.25-2.1,5.25A1.32,1.32,0,0,1,58,41.45c-.2,1-.82.77-1.16,1.41a67.07,67.07,0,0,0-32.69,0c-.33-.59-.93-.42-1.12-1.37a1.32,1.32,0,0,1,.62-1.23S21.66,35.27,21.51,35s-.49-.42-.7-.85,0-.88-.12-1.16-.42-.37-.63-.76,0-.59-.19-1.1a5.52,5.52,0,0,0-1.15-1.56c-1.39-.82-1.37.73-1.37.9a1.45,1.45,0,0,0-1-.64c.21,1-2.47,2-2.35-.66a2,2,0,0,1,2.22-2c2.06.05,3.49,1.35,4.48,3.15l.28-.13s-.55-1.45.33-1.91,2,.59,2,.59c2.71,1.14,3.35,3,2.6,5.74-.11.43.19,1.23-.51,1.42s-.94-.41-1.16-.65-.45-.36-.59-.24,0,.45.21.6.86.54,1.12.76a1.5,1.5,0,0,1,.51,1.85c.79.52,3.9.13,3.8-1.9a.75.75,0,0,1-1-.67c-.05-.34.34-.63.9-.82a2.24,2.24,0,0,1-.48-1.27c-.06-1,.52-1.73,1.29-1.7a1.83,1.83,0,0,1,1.5,1.82,2,2,0,0,1-.16.93c.57.08,1,.31,1,.73a.52.52,0,0,1-.65.56c.52,1.35,4.41,2.4,6.88.55-.49,0-.82-.57-.82-.57m.89-5.07a1.82,1.82,0,1,0,1.82-1.82,1.83,1.83,0,0,0-1.82,1.82m10,7.89a14.14,14.14,0,0,1,2.32.3,11.45,11.45,0,0,1-1-1.22s-.35.32-.56.47a7.76,7.76,0,0,1-.81.45m-8.22-1.59a4.13,4.13,0,0,1-1.54,1.14l1.52,0h.05l1.52,0a4.17,4.17,0,0,1-1.55-1.14M32.24,38.8a8.94,8.94,0,0,1-.81-.45c-.21-.15-.56-.47-.56-.47a11.45,11.45,0,0,1-.95,1.22,14.31,14.31,0,0,1,2.32-.3m24.09,4.92c.5.13,1.21.63,1,1.36s-1.06.81-1.57.67-1.21-.63-1-1.36,1-.81,1.56-.67m-6.62-.2-1.53,1.29-1.29-1.54L48.43,42ZM25.32,45.75c-.51.14-1.37.06-1.57-.67s.52-1.23,1-1.36,1.37-.06,1.56.67-.51,1.23-1,1.36M39,43c0-.58.72-1,1.6-1s1.6.47,1.6,1-.72,1.05-1.6,1.05S39,43.62,39,43m-7.56.48L32.67,42l1.54,1.28-1.29,1.54ZM18.26,89.85a.76.76,0,0,1,.92-.54.8.8,0,0,1,.47-.94.84.84,0,0,1,1.09.47l.31,2.07-2.2-.07a.82.82,0,0,1-.59-1m3.12-3.42a.76.76,0,0,1,.92-.54.8.8,0,0,1,.48-.94c.72-.33,1.08.47,1.08.47l.31,2.07L22,87.42a.82.82,0,0,1-.59-1M24.5,83a.76.76,0,0,1,.92-.54.8.8,0,0,1,.47-.94C26.62,81.2,27,82,27,82l.31,2.06L25.08,84a.81.81,0,0,1-.58-1m16-31.67a.77.77,0,0,1,.92-.54.8.8,0,0,1,.48-.94c.72-.32,1.08.48,1.08.48l.31,2.06-2.2-.07a.82.82,0,0,1-.59-1M43.53,63a.77.77,0,0,1,.92-.54.79.79,0,0,1,.48-.93C45.65,61.2,46,62,46,62l.31,2.07L44.12,64a.81.81,0,0,1-.59-1m3.66-3.87a.76.76,0,0,1,.92-.54.8.8,0,0,1,.48-.94c.72-.33,1.08.47,1.08.47L50,60.19l-2.2-.07a.82.82,0,0,1-.59-1m3.66-3.88a.78.78,0,0,1,.92-.54.8.8,0,0,1,.48-.94c.72-.32,1.08.48,1.08.48l.31,2.07-2.2-.08a.82.82,0,0,1-.59-1m3.66-3.87a.77.77,0,0,1,.92-.54.8.8,0,0,1,.48-.94.84.84,0,0,1,1.09.47l.3,2.07-2.2-.07a.82.82,0,0,1-.59-1M16.19,77.47a.75.75,0,0,1,.91-.54.81.81,0,0,1,.48-.94.84.84,0,0,1,1.09.47L19,78.53l-2.21-.07a.81.81,0,0,1-.58-1m8.5,20.74a.76.76,0,0,1,.91-.54.8.8,0,0,1,.48-.93.84.84,0,0,1,1.09.47l.31,2.07-2.21-.08a.8.8,0,0,1-.58-1m3.62-3.93a.75.75,0,0,1,.91-.54.81.81,0,0,1,.48-.94c.73-.33,1.09.48,1.09.48l.31,2.06-2.21-.07a.81.81,0,0,1-.58-1m3.62-3.94a.75.75,0,0,1,.91-.54.82.82,0,0,1,.48-.94c.73-.32,1.09.48,1.09.48l.31,2.07-2.21-.08a.81.81,0,0,1-.58-1m3.62-3.94a.76.76,0,0,1,.91-.54.8.8,0,0,1,.48-.93A.84.84,0,0,1,38,85.4l.3,2.07-2.2-.07a.81.81,0,0,1-.58-1M51.49,69.67a.75.75,0,0,1,.91-.54.82.82,0,0,1,.48-.94c.73-.33,1.09.48,1.09.48l.31,2.07-2.21-.08a.81.81,0,0,1-.58-1m3.26-3.56a.77.77,0,0,1,.92-.54.8.8,0,0,1,.48-.94c.72-.33,1.09.48,1.09.48l.3,2.06-2.2-.07a.82.82,0,0,1-.59-1M58,62.55a.77.77,0,0,1,.92-.54.82.82,0,0,1,.48-.94c.73-.33,1.09.48,1.09.48l.3,2.06-2.2-.07a.82.82,0,0,1-.59-1M61.28,59a.76.76,0,0,1,.92-.54.8.8,0,0,1,.47-.94c.73-.33,1.09.48,1.09.48l.31,2.06L61.87,60a.81.81,0,0,1-.59-1M36,101.71a.75.75,0,0,1,.91-.54.81.81,0,0,1,.48-.94.84.84,0,0,1,1.09.47l.3,2.07-2.2-.07a.81.81,0,0,1-.58-1M61.3,73.65a.75.75,0,0,1,.91-.54.81.81,0,0,1,.48-.94c.73-.33,1.09.48,1.09.48l.31,2.06-2.21-.07a.81.81,0,0,1-.58-1M36.78,76.47c0-.11.17-.09.5-.15s.62-.17.62-.06-.23,0-.23.31v2.57c0,.13.18,0,.18.13s-.32.08-.54.08-.55.05-.55,0,.22,0,.22-.16V76.7c0-.26-.2,0-.2-.23M34,77.58c0-.07.09-.08.26-.17s.26-.17.41,0,.94,1,.94,1v-1.3c0-.14-.25,0-.25-.1s.11-.11.29-.18.45-.28.45-.15-.19.11-.19.31V79.5c0,.21,0,.21-.11.21s-1.33-1.6-1.33-1.6v1.71c0,.15.31-.06.31.08s-.18.13-.37.21-.43.19-.43.09.22-.09.22-.25V77.74c0-.16-.2,0-.2-.16m-1,1.57c0-1.07-.68-.67-.68-.67v2.18s.68,0,.68-1.51m-1.58-.44c0-.08.33-.2.55-.3.39-.19,1.66-.84,1.66.73A1.75,1.75,0,0,1,32.3,81c-.32.15-.76.36-.79.29s.17-.14.17-.39V79.07c0-.44-.27-.21-.27-.36m4.43-6.49c0-.06.26-.11.4-.15s.37-.1.47,0,.56.86.56.86.61-.86.66-.91.06-.14.3-.15.41,0,.41,0-.18,0-.19.27V74.5c0,.26.18.17.18.26s-.11,0-.52,0-.56,0-.56,0,.17,0,.17-.25V73s-.58.85-.61.85-.75-1.09-.75-1.09V74.6c0,.3.3.12.3.24s-.23.09-.4.13-.36.12-.38.06.21,0,.21-.39V72.51c0-.33-.24-.19-.25-.29m-.84.33c.1,0,.36-.19.39-.15s-.11.08-.21.53a17.48,17.48,0,0,1-.72,2.85c-.05,0-.89-2-1-2.21s-.28-.09-.31-.19.21-.16.4-.24.47-.27.51-.23-.2.09-.06.41.55,1.24.55,1.24.28-1.16.36-1.55-.22-.2-.23-.29.15-.11.28-.17Zm-3.21,2.72v1.42a1,1,0,0,0,.73-1c0-.76-.73-.38-.73-.38m0-1.25V75s.53-.2.53-.65-.53-.29-.53-.29m.06-.24c.31-.12,1.12-.29,1.12.42a.61.61,0,0,1-.33.62s.6.11.6.6a1.24,1.24,0,0,1-.59,1.13l-1.22.61c-.09.06-.31.17-.34.12s.16-.1.16-.47V74.53c0-.48-.23-.27-.23-.4s.51-.23.83-.35m5.08-6.43V68.5a.59.59,0,0,0,.54-.65c0-.74-.54-.5-.54-.5m1.43,2.57a.29.29,0,0,0,.24,0,.49.49,0,0,1-.49.41c-.58,0-.58-1-.74-1.3a.32.32,0,0,0-.44-.14v1c0,.33.2.19.2.31s-.15.07-.15.07l-.62.17c-.16,0-.23.07-.23,0s.16-.05.16-.41V67.9c0-.41-.24-.27-.24-.39s.16-.1.33-.14.38-.15.77-.25,1,.1,1,.63a.88.88,0,0,1-.51.84c.68.33.38,1.3.68,1.33m-4.45-1.5a8,8,0,0,0,1.28-.59c.07,0,.29-.17.39,0s.18.46.12.48-.16,0-.28-.1a.51.51,0,0,0-.36-.08l-.31.11v.9s.32,0,.36-.17.09-.32.19-.35,0,.17,0,.43c0,.09,0,.14,0,.19,0,.32,0,.42-.06.43s-.16-.21-.18-.27-.37,0-.37,0v1.29l.36-.2a1.86,1.86,0,0,0,.5-.54c.09-.17.13-.31.22-.3s-.06.57-.06.57a.39.39,0,0,1-.19.31l-1.3.61c-.17.09-.38.24-.39.15s.17,0,.17-.43V68.76s0-.18-.15-.2-.2-.07,0-.14m-2.39,1c.15,0,.56-.23.59-.18s-.22.1-.13.37.56,1.36.56,1.36L33,69.31c.09-.35-.2-.23-.22-.32s.21-.13.34-.18.44-.2.46-.15-.13.11-.22.43a22.93,22.93,0,0,1-.93,3.06,18.64,18.64,0,0,1-1.05-2.34c-.07-.18-.31-.11-.33-.21s.36-.14.51-.19M43.1,76.55c0-.07.1,0,.26,0a.73.73,0,0,1,.47.3l1.09,1.86V77.23c0-.2-.17-.2-.17-.28s.13,0,.27,0,.35.07.35.14-.18,0-.18.14v2.81s0,.12-.09,0l-1.51-2.42s0,1.46,0,1.61.19.16.19.25-.2,0-.33,0-.32,0-.32-.11.17.06.17-.21V76.84c0-.18-.18-.2-.19-.29m1.37-4.29c0-.11.46.08.81.18s1,.22,1,.44.07.53,0,.53-.17-.35-.28-.46a1.29,1.29,0,0,0-.6-.26c-.09,0-.07,0-.07,0v.87s.23.12.36.06.15-.26.22-.24.05.17,0,.47,0,.58-.06.55-.08-.28-.23-.44a.64.64,0,0,0-.33-.17v1.42a.48.48,0,0,0,.53.08c.36-.12.61-.36.67-.3s0,.14-.14.41-.27.45-.44.37-.57-.22-.82-.34-.75-.23-.75-.33.25.09.25-.22V72.5c0-.12-.19-.16-.19-.24m-.59-.42c.13,0,.1.47.12.63s.12.55,0,.55-.31-.46-.53-.69-1-.61-1,1c0,1.4.61,1.37,1,1.26s.46-.36.49-.33a1.12,1.12,0,0,1-.94.77c-.68.07-1.35-.59-1.35-1.63s.52-1.69,1.16-1.69.67.36.9.36,0-.26.16-.26m1.75-3.72c0-.13.26,0,.64.19s.66.24.64.3-.3,0-.26.14.46,1.59.46,1.59.5-1.18.51-1.23-.13-.16-.11-.23.17,0,.29.09.32.13.28.21-.18-.1-.23,0L46.79,71.6l-1-3.22c-.06-.19-.18-.17-.16-.26m-2.29-.87c0-.07.15,0,.15,0l.88.32s.16,0,.15.12-.3-.08-.3.18v2.51s.07.17.36,0a5.43,5.43,0,0,0,.74-.41s.21-.1.16,0-.27.61-.27.61,0,.18-.28.14-.82-.22-1-.27l-.61-.18s-.1,0-.1-.09.29,0,.29-.22V67.58c0-.22-.18-.22-.18-.33m3.45,8.85c0-.18.23.06.23-.21V73.47c0-.3-.13-.29-.13-.41s.26.06.33.08l.83.42a1.3,1.3,0,0,1,.81,1.16c0,.56-.46.46-.46.46a1.06,1.06,0,0,1,.49.69c0,.41.08.76.08.81s.09.3.34.08c0,0,0,.49-.53.31a.76.76,0,0,1-.49-.69c0-.23-.16-1.33-.65-1.31v1.1c0,.3.17.22.17.39s-.26-.07-.48-.16-.54-.2-.54-.3m.85-2.46v1.12c.07,0,.63.39.63-.31a.8.8,0,0,0-.63-.81m-1.23,4.21c.06-.17-.11-.22-.08-.3s.26.07.39.14.35.12.41.3.77,2.64.84,2.87.23.18.18.3-.23-.06-.65-.22S47,80.76,47,80.7s.35.08.26-.16-.17-.58-.17-.58l-1-.32-.13.47c-.07.23.15.2.11.28s-.16,0-.34-.08-.25-.09-.24-.13.15,0,.21-.14.64-2,.69-2.19m.16.32-.34,1.09.75.25ZM65.9,47.87V80c.36,19.19-15.33,26-25.69,26s-26-6.8-25.69-26V47.87H24.1a2.32,2.32,0,0,1,.12-1c13.09-2.62,19.41-2.75,32.49,0a1.25,1.25,0,0,1,.28,1ZM19.31,94.42l10-10.68V80.62l-1.14,0a.81.81,0,0,1-.58-1,.75.75,0,0,1,.91-.54.81.81,0,0,1,.48-.94.88.88,0,0,1,.33-.08V76L16.81,89.31a21.88,21.88,0,0,0,2.5,5.11M31.79,67.13l.41-.2c.49-.24,1.36-.7,2.3-1.09a8.2,8.2,0,0,1,2.88-.77,4.35,4.35,0,0,1,2.07.52A3.13,3.13,0,0,1,40,66l0,0,.06-.08a2.15,2.15,0,0,1,.46-.4A3.83,3.83,0,0,1,42.66,65a8.29,8.29,0,0,1,3.15.84L46,66,62.14,48.81h-7.3L40.65,63.92V56.65L48,48.81H15.46V80a30.61,30.61,0,0,0,.12,3.36l7-7.48h6.74v-6a.33.33,0,0,1-.31.14s.16-.51-.3-.59h-.12a.81.81,0,0,0-.57.26c-.25.19-1,1.06-1.13,1.2-.15-.14-.89-1-1.14-1.2a.83.83,0,0,0-.57-.26h-.12c-.47.08-.29.59-.29.59s-.43.07-.43-.57a.85.85,0,0,1,.69-.81c.48-.12,1-.15,1.06-1,0-.16,0-.19,0-.19a1.46,1.46,0,0,1-.6.47c-.5.26-1.86.25-1.82,1,0,.31.33.28.33.28s0,.14-.25.18a1.07,1.07,0,0,1-.18,0c-.31,0-.42-.37-.4-.79s-.15-.61-.49-.56a.49.49,0,0,0-.19.07.32.32,0,0,0-.17.39.5.5,0,0,1-.25-.5c0-.3.23-.43.51-.54l.1,0a1.51,1.51,0,0,1,.64,0,1.3,1.3,0,0,1,0-.53.58.58,0,0,1,.49-.53c.51-.09.62.25.54.44,0,0-.12-.12-.26-.1l-.07,0a.42.42,0,0,0-.16.17c-.09.2.08.45.11.5a.91.91,0,0,0,.81.16,1.49,1.49,0,0,0,.94-.66.65.65,0,0,0,.11-.35L26,63.92s.08-.7-.41-.79a.48.48,0,0,0-.17,0,1.07,1.07,0,0,0-.7,1.29.81.81,0,0,1-.42,1c-.33.08-.53,0-.64-.23.57,0,.53-.49.35-.66a.39.39,0,0,0-.31-.06A2.52,2.52,0,0,0,22.2,65.7c-.12.4.18.29.3.63a.48.48,0,0,1-.12.48,1.37,1.37,0,0,1,0,.23c-.06.23-.18.3-.29.32a.42.42,0,0,1-.21,0A.35.35,0,0,0,22,67a1.25,1.25,0,0,0,0-.14s-.16,0-.3-.2,0-.33-.14-.6a1.75,1.75,0,0,0-1.07-.6.09.09,0,0,0-.07,0c-.08,0-.15,0-.27.06h-.11c-.3,0-.22-.18-.47-.16a.26.26,0,0,0-.17.34s0,0,0,0a.47.47,0,0,1-.21-.38.67.67,0,0,1,.49-.7.45.45,0,0,1,.44.19c.16-.66-.36-.44-.61-.76a.36.36,0,0,1-.08-.41c0-.12-.17-.13-.33-.11l-.11,0s.05-.34.37-.38a.82.82,0,0,1,.44.06.35.35,0,0,1,.39.14c.07.14,0,.3,0,.47.05.44.32.43.36.42a.8.8,0,0,1,.09-.91.24.24,0,0,0-.16-.29s-.08,0,0,0,.6,0,.7.37a.52.52,0,0,1,.26.46.51.51,0,0,1-.29.52c.06.43.31.5.54.46a1.42,1.42,0,0,0,.44-.17c.4-.16,1.22-.67,1-1.08a.44.44,0,0,0-.45-.25.68.68,0,0,0-.26.12.49.49,0,0,0-.12.52c-.37.1-.54-.53-.31-.79a.85.85,0,0,1,.56-.3c.24,0,.49,0,.73-.08a1.08,1.08,0,0,0,.73-.62,1,1,0,0,0,0-.91,1.28,1.28,0,0,0-.84-.78,2.2,2.2,0,0,1-.91,1.54.86.86,0,0,1-.36.14c-.09,0-.14,0-.12,0a1.76,1.76,0,0,0,.43-1.5,3.14,3.14,0,0,1-1.35,1.31l-.25.07c-.45.07-.89-.14-.72-.16a1.79,1.79,0,0,0,1.14-2.21,5.12,5.12,0,0,1-1.22,1.46,2,2,0,0,1-.82.33c-.51.08-.9-.06-.83-.13s1.41-.67,1.43-1.3a2.13,2.13,0,0,1-.87.39l-.19,0c-1.2,0-1.2-.87-1.2-.87s1.21.09,2.13-1.86a6.75,6.75,0,0,1-1.29.29c-.41,0-.58-.22-.53-.21a.51.51,0,0,0,.25,0,2.14,2.14,0,0,0,1-.49c-.11,0-1.58-.7-1-1.71a1.82,1.82,0,0,0,.9.4c.37,0,1,0,1.17-.41a3.62,3.62,0,0,1-1.57-.53c-.46-.29-.64-1-.47-.77a1,1,0,0,0,.61.33.68.68,0,0,0,.35,0s-1.15-1.08-.42-1.92c0,0,.38,1.07,1.33,1.08a2.13,2.13,0,0,1-.58-1c-.06-.37,0-.86,0-.72l.22.4a3,3,0,0,0,.57.67,2,2,0,0,1,.05-1.08c0-.08.3-.51.31-.4s0,.34,0,.45a2.54,2.54,0,0,0,.88,1.51c.87.89,1.81.88,1.82,1.44s-.85.57-1.38.52c-.19,0-.16.29,0,.49a2.14,2.14,0,0,0,2.92-.23,1.25,1.25,0,0,0,.12-1.11c-.18-.5-.58-.52-1.35-.69-.54-.12-.4-.36-.32-.36a.83.83,0,0,0,.33.09c.4,0,.16-.51.12-.51a5.15,5.15,0,0,1-.92.23c-.47,0-1-.15-1-.48s.49-.51.47-.41-.3.57.58.54a5.16,5.16,0,0,0,.84-.07.57.57,0,0,0-.48-.35,4.43,4.43,0,0,1-.55,0c-.1-.24.16-.48.34-.57a.92.92,0,0,1,.38-.07.88.88,0,0,1,.75-.37,9.62,9.62,0,0,1,1,.21c.21,0,.58-.14.61-.07s-.14.28-.11.46c0,.43.73,2.13,1.51,2.29.79-.16,1.54-1.86,1.52-2.29,0-.18-.15-.39-.11-.46s.4.07.61.07a9.62,9.62,0,0,1,1-.21.88.88,0,0,1,.75.37,1,1,0,0,1,.38.07c.18.09.44.33.34.57a4.37,4.37,0,0,1-.55,0,.57.57,0,0,0-.48.35,5.16,5.16,0,0,0,.84.07c.88,0,.58-.51.58-.54s.48,0,.48.41-.58.52-1,.48a5.15,5.15,0,0,1-.92-.23s-.29.52.12.51a.83.83,0,0,0,.33-.09c.08,0,.22.24-.32.36-.77.17-1.17.19-1.35.69a1.25,1.25,0,0,0,.12,1.11,2.14,2.14,0,0,0,2.92.23c.15-.2.18-.49,0-.49-.53,0-1.34.14-1.38-.52s.95-.55,1.82-1.44a2.54,2.54,0,0,0,.88-1.51c0-.11,0-.45,0-.45s.28.32.31.4a2.08,2.08,0,0,1,.05,1.08,3,3,0,0,0,.57-.67l.22-.4c.07-.14.09.35,0,.72a2.13,2.13,0,0,1-.58,1c1,0,1.33-1.08,1.33-1.08.73.84-.42,1.92-.42,1.92a.67.67,0,0,0,.35,0,1,1,0,0,0,.61-.33c.17-.2,0,.48-.47.77a3.62,3.62,0,0,1-1.57.53c.15.37.8.44,1.16.41a1.88,1.88,0,0,0,.91-.4c.57,1-.9,1.66-1,1.71a2.14,2.14,0,0,0,1,.49.51.51,0,0,0,.25,0s-.12.25-.53.21a6.75,6.75,0,0,1-1.29-.29c.92,2,2,1.87,2.13,1.86s0,.87-1.2.87l-.18,0a2.12,2.12,0,0,1-.88-.39c0,.63,1.43,1.3,1.43,1.3s-.32.21-.83.13a2,2,0,0,1-.82-.33,5.12,5.12,0,0,1-1.22-1.46A1.79,1.79,0,0,0,33.86,62c.17,0-.28.23-.72.16l-.25-.07a3.14,3.14,0,0,1-1.35-1.31,1.76,1.76,0,0,0,.43,1.5s0,0-.11,0a.85.85,0,0,1-.37-.14,2.2,2.2,0,0,1-.91-1.54,1.27,1.27,0,0,0-.83.78,1,1,0,0,0,0,.91,1.1,1.1,0,0,0,.73.62c.24,0,.49,0,.73.08a.85.85,0,0,1,.56.3c.23.26.06.89-.31.79a.49.49,0,0,0-.12-.52.68.68,0,0,0-.26-.12.44.44,0,0,0-.45.25c-.22.41.6.92,1,1.08a1.54,1.54,0,0,0,.45.17c.23,0,.48,0,.54-.46a.51.51,0,0,1-.29-.52.52.52,0,0,1,.26-.46c.1-.4.7-.37.7-.37s0,0,0,0a.24.24,0,0,0-.16.29.8.8,0,0,1,.09.91s.31,0,.36-.42c0-.17,0-.33,0-.47a.32.32,0,0,1,.38-.14.82.82,0,0,1,.44-.06.49.49,0,0,1,.4.35s0,0,0,0l-.11,0c-.16,0-.37,0-.33.11a.36.36,0,0,1-.08.41c-.25.32-.77.1-.61.76a.45.45,0,0,1,.44-.19.67.67,0,0,1,.49.7.47.47,0,0,1-.21.38.07.07,0,0,1,0,0,.25.25,0,0,0-.16-.34c-.25,0-.17.17-.47.16h-.12c-.11,0-.18,0-.26-.06a.09.09,0,0,0-.07,0,1.75,1.75,0,0,0-1.07.6c-.18.27,0,.35-.14.6s-.3.2-.3.2V67s0,.06,0,.09m-1,.38a5.79,5.79,0,0,0,.79-.28.68.68,0,0,1-.08-.19,1.37,1.37,0,0,1,0-.23.48.48,0,0,1-.12-.48c.12-.34.42-.23.3-.63a2.52,2.52,0,0,0-1.52-1.25.38.38,0,0,0-.31.06c-.18.17-.22.63.35.66-.11.24-.31.31-.64.23a.8.8,0,0,1-.42-1,1.07,1.07,0,0,0-.7-1.29.48.48,0,0,0-.17,0c-.48.09-.41.79-.41.79L28,66.69a.65.65,0,0,0,.11.35,1.49,1.49,0,0,0,.94.66.92.92,0,0,0,.81-.16c0-.05.2-.3.11-.5a.42.42,0,0,0-.16-.17l-.07,0c-.14,0-.24.12-.26.1-.08-.19,0-.53.54-.44a.57.57,0,0,1,.49.53,1.3,1.3,0,0,1-.05.53,1.15,1.15,0,0,1,.26-.06m-1.42,1a.9.9,0,0,1,0-.22,7.34,7.34,0,0,1-1-.29,1.46,1.46,0,0,1-.6-.47s0,0,0,.19c.09.81.57.84,1.05,1a.92.92,0,0,1,.58.41ZM46.73,84a.68.68,0,0,0,0,.59,2.22,2.22,0,0,0,2.72,0c-1-.15-1.84-.39-2.76-.61m4.42-1.49a1.47,1.47,0,0,0,.78.63c.79-.16,1.53-1.86,1.51-2.29,0-.19-.14-.4-.11-.47s.41.07.61.07.66-.22,1-.21a.88.88,0,0,1,.75.37c.08,0,.21,0,.38.07s.44.33.34.57a3,3,0,0,1-.55,0,.57.57,0,0,0-.48.36,7.42,7.42,0,0,0,.84.06c.88,0,.58-.51.57-.54s.48,0,.48.41-.57.52-1,.48a6.58,6.58,0,0,1-.92-.22s-.29.51.12.51a.7.7,0,0,0,.32-.1c.09,0,.23.25-.31.36-.77.17-1.17.19-1.35.69a1.27,1.27,0,0,0,.12,1.12,2.14,2.14,0,0,0,2.92.22c.15-.2.18-.48,0-.48-.53,0-1.34.13-1.38-.53s.95-.55,1.82-1.43a2.64,2.64,0,0,0,.88-1.52,4.33,4.33,0,0,0,0-.45c0-.1.29.33.32.4a2.08,2.08,0,0,1,0,1.08,3,3,0,0,0,.57-.67l.22-.39c.06-.14.09.34,0,.71a2.13,2.13,0,0,1-.58,1c1,0,1.33-1.08,1.33-1.08.73.84-.42,1.92-.42,1.92a.67.67,0,0,0,.35,0,1,1,0,0,0,.61-.33c.17-.2,0,.48-.47.77a3.62,3.62,0,0,1-1.57.53c.15.37.8.44,1.16.41a1.79,1.79,0,0,0,.91-.4c.57,1-.9,1.67-1,1.71a2.3,2.3,0,0,0,1,.5.65.65,0,0,0,.25,0s-.12.25-.53.21a6.75,6.75,0,0,1-1.29-.29c.92,2,2,1.88,2.13,1.87s0,.86-1.2.86h-.19a2.24,2.24,0,0,1-.87-.4c0,.63,1.43,1.3,1.43,1.3s-.32.21-.83.13a2,2,0,0,1-.82-.32,5.26,5.26,0,0,1-1.22-1.47,1.79,1.79,0,0,0,1.14,2.21c.17,0-.28.23-.72.16a1,1,0,0,1-.25-.07,3.14,3.14,0,0,1-1.35-1.31A1.78,1.78,0,0,0,57,90.71s0,0-.12,0a.86.86,0,0,1-.36-.14A2.18,2.18,0,0,1,55.61,89a1.28,1.28,0,0,0-.84.78,1,1,0,0,0,0,.92,1.07,1.07,0,0,0,.72.61c.25.05.5,0,.74.08a.89.89,0,0,1,.56.3c.22.26.06.89-.31.8a.5.5,0,0,0-.12-.53.54.54,0,0,0-.26-.11.42.42,0,0,0-.45.24c-.22.42.6.92,1,1.08a1.28,1.28,0,0,0,.45.17c.23,0,.48,0,.54-.46a.5.5,0,0,1-.29-.52.54.54,0,0,1,.26-.46c.09-.39.7-.37.7-.37s0,0,0,.05a.24.24,0,0,0-.16.29.81.81,0,0,1,.09.91s.31,0,.36-.42c0-.17,0-.33,0-.46a.33.33,0,0,1,.39-.15.81.81,0,0,1,.44-.06.51.51,0,0,1,.4.35s0,0,0,0l-.11,0c-.16,0-.37,0-.33.12a.35.35,0,0,1-.08.4c-.25.32-.77.1-.61.76a.45.45,0,0,1,.43-.18.65.65,0,0,1,.49.7.42.42,0,0,1-.2.37.07.07,0,0,1,0,0c0-.18,0-.31-.16-.33s-.17.16-.47.16h-.12c-.11,0-.18-.06-.26-.07h-.07a1.72,1.72,0,0,0-1.07.61c-.18.27,0,.34-.14.6s-.3.19-.3.19a.54.54,0,0,0,0,.14c0,.11.06.24.2.27s0,0,0,0a.42.42,0,0,1-.21,0c-.11,0-.23-.09-.29-.32a1.37,1.37,0,0,1,0-.23.48.48,0,0,1-.12-.48c.12-.33.42-.23.3-.63a2.55,2.55,0,0,0-1.52-1.25.35.35,0,0,0-.31.07c-.18.16-.22.62.35.66-.11.23-.31.3-.64.22a.8.8,0,0,1-.42-1,1.07,1.07,0,0,0-.7-1.29.32.32,0,0,0-.17,0c-.49.08-.41.79-.41.79l.25,2.76a.65.65,0,0,0,.11.35,1.49,1.49,0,0,0,.94.66.89.89,0,0,0,.81-.16.62.62,0,0,0,.11-.5.35.35,0,0,0-.16-.16l-.07,0c-.14,0-.24.11-.26.09-.08-.19,0-.53.54-.43a.56.56,0,0,1,.49.52,1.41,1.41,0,0,1-.06.53,1.58,1.58,0,0,1,.65,0l.1,0c.28.11.47.25.51.54a.54.54,0,0,1-.25.51.34.34,0,0,0-.17-.4.56.56,0,0,0-.19-.07c-.34,0-.51.3-.49.56,0,.42-.09.75-.4.79H55.1c-.23,0-.25-.18-.25-.18s.34,0,.33-.28c0-.77-1.32-.76-1.82-1a1.46,1.46,0,0,1-.6-.47s0,0,0,.2c.09.8.58.84,1.06.95a.86.86,0,0,1,.69.81c0,.64-.43.57-.43.57s.17-.51-.3-.58h-.11a.85.85,0,0,0-.58.26c-.24.2-1,1.06-1.13,1.2-.14-.14-.88-1-1.13-1.2a.85.85,0,0,0-.57-.26h-.12c-.47.07-.3.58-.3.58s-.42.07-.42-.57a.85.85,0,0,1,.69-.81c.48-.11,1-.15,1.05-.95,0-.17,0-.2,0-.2a1.46,1.46,0,0,1-.6.47c-.5.26-1.86.25-1.82,1,0,.31.32.28.32.28s0,.14-.24.18h-.18c-.32,0-.42-.37-.4-.79,0-.26-.15-.61-.49-.56a.6.6,0,0,0-.2.07.34.34,0,0,0-.16.4.52.52,0,0,1-.25-.51c0-.29.23-.43.51-.54l.09,0a1.54,1.54,0,0,1,.65,0,1.41,1.41,0,0,1-.06-.53.56.56,0,0,1,.5-.52c.51-.1.62.24.54.43,0,0-.12-.12-.26-.09l-.07,0a.35.35,0,0,0-.16.16.59.59,0,0,0,.11.5.88.88,0,0,0,.81.16,1.49,1.49,0,0,0,.94-.66.65.65,0,0,0,.11-.35L51,92.39s.08-.71-.4-.79a.32.32,0,0,0-.17,0,1.07,1.07,0,0,0-.7,1.29.81.81,0,0,1-.42,1c-.33.08-.53,0-.64-.22.57,0,.53-.5.35-.66a.37.37,0,0,0-.31-.07,2.52,2.52,0,0,0-1.52,1.25c-.12.4.18.3.3.63a.48.48,0,0,1-.12.48,1.37,1.37,0,0,1,0,.23c-.06.23-.18.31-.29.32a.42.42,0,0,1-.21,0,.33.33,0,0,0,.19-.3,1.25,1.25,0,0,0,0-.14.33.33,0,0,1-.3-.19c-.17-.26,0-.33-.14-.6A1.72,1.72,0,0,0,45.56,94h-.07c-.08,0-.15.05-.27.07h-.11c-.31,0-.22-.18-.47-.16s-.21.15-.17.33c0,0,0,0,0,0a.45.45,0,0,1-.21-.37.65.65,0,0,1,.49-.7.45.45,0,0,1,.44.18c.16-.66-.36-.44-.61-.76a.35.35,0,0,1-.08-.4c0-.13-.17-.14-.33-.12a.28.28,0,0,0-.11,0s.05-.34.37-.39a.78.78,0,0,1,.43.06.33.33,0,0,1,.39.15c.08.13,0,.29,0,.46,0,.44.32.43.36.42a.81.81,0,0,1,.09-.91.24.24,0,0,0-.16-.29s-.08,0,0-.05.6,0,.69.37a.54.54,0,0,1,.27.46.49.49,0,0,1-.3.52c.07.43.32.5.55.46a1.19,1.19,0,0,0,.44-.17c.4-.16,1.22-.66,1-1.08a.42.42,0,0,0-.45-.24.62.62,0,0,0-.27.11.51.51,0,0,0-.11.53c-.37.09-.54-.54-.31-.8a.89.89,0,0,1,.56-.3c.24,0,.49,0,.73-.08a1.11,1.11,0,0,0,.73-.61,1,1,0,0,0,0-.92,1.27,1.27,0,0,0-.83-.78,2.18,2.18,0,0,1-.91,1.54.9.9,0,0,1-.37.14c-.08,0-.13,0-.11,0a1.81,1.81,0,0,0,.43-1.51A3.2,3.2,0,0,1,46,90.51a1,1,0,0,1-.25.07c-.45.07-.89-.14-.72-.16a1.78,1.78,0,0,0,1.13-2.21,4.9,4.9,0,0,1-1.22,1.47,1.92,1.92,0,0,1-.82.32c-.5.08-.89-.06-.82-.13s1.41-.67,1.43-1.3a2.23,2.23,0,0,1-.88.4h-.18c-1.2,0-1.2-.86-1.2-.86s1.21.08,2.12-1.87a6.53,6.53,0,0,1-1.28.29c-.41,0-.58-.21-.53-.21a.65.65,0,0,0,.25,0,2.3,2.3,0,0,0,1-.5c-.11,0-1.58-.7-1-1.71a1.73,1.73,0,0,0,.9.4c.37,0,1,0,1.17-.41a3.62,3.62,0,0,1-1.57-.53l-.07,0a10.6,10.6,0,0,0-1.11.06,2.07,2.07,0,0,1-4.07,0,7,7,0,0,0-1.82-.08l-13.8,14.7a23.77,23.77,0,0,0,4.3,3.18L39.77,87.68V95l-8.1,8.62A26.91,26.91,0,0,0,40.21,105c10.07,0,25.1-6.59,24.75-25V68.13L58.52,75H51.68L65,60.85V53.08L51,67.9a.28.28,0,0,1,.1.18ZM49.64,87h4.58V85.15H49.64Zm2.29,3.59a2.17,2.17,0,0,0,2.24-1.94H49.68a2.18,2.18,0,0,0,2.25,1.94m-27.31-32H29.2V56.69H24.61Zm2.29,3.59a2.17,2.17,0,0,0,2.23-1.95H24.65a2.2,2.2,0,0,0,2.26,1.95M39.26,83.3a1,1,0,1,0,1-1,1,1,0,0,0-1,1M30,68.46v15.1s.16.2,1.17-.07c1.17-.32,2.61-1.8,4.63-2.24a7,7,0,0,1,4,.48V66.59a3.65,3.65,0,0,0-2.42-.9c-1.47,0-3.94,1.32-4.9,1.8a7.25,7.25,0,0,1-2.34.79.17.17,0,0,0-.17.18M43.21,81.21c2.63,0,4,1.63,4.88,2,2.08.82,2.42.4,2.42.4V68.41c0-.15-.21-.15-.21-.15a11.21,11.21,0,0,1-2.72-.73c-.66-.4-3.12-1.87-4.92-1.87s-2.12.77-2.12.77V81.76a5.19,5.19,0,0,1,2.67-.55"/><rect class="cls-2" width="200" height="200"/></svg>